<svg xmlns="http://www.w3.org/2000/svg" xmlns:xlink="http://www.w3.org/1999/xlink" width="758" height="535" viewBox="0 0 758 535">
  <defs>
    <clipPath id="clip-path">
      <rect id="Rectangle_1366" data-name="Rectangle 1366" width="758" height="535" transform="translate(-21555 1973)" fill="#fff"/>
    </clipPath>
    <clipPath id="clip-path-2">
      <circle id="Ellipse_266" data-name="Ellipse 266" cx="67.782" cy="67.782" r="67.782" transform="translate(0 0)" fill="none"/>
    </clipPath>
    <clipPath id="clip-path-3">
      <ellipse id="Ellipse_267" data-name="Ellipse 267" cx="55.63" cy="55.631" rx="55.63" ry="55.631" transform="translate(0 0)" fill="none"/>
    </clipPath>
    <clipPath id="clip-path-4">
      <ellipse id="Ellipse_268" data-name="Ellipse 268" cx="93.875" cy="93.875" rx="93.875" ry="93.875" transform="translate(0 0)" fill="none"/>
    </clipPath>
    <clipPath id="clip-path-5">
      <circle id="Ellipse_269" data-name="Ellipse 269" cx="56.001" cy="56.001" r="56.001" transform="translate(0 0)" fill="#68a6db"/>
    </clipPath>
    <clipPath id="clip-path-6">
      <ellipse id="Ellipse_294" data-name="Ellipse 294" cx="34.236" cy="34.235" rx="34.236" ry="34.235" transform="translate(0 0)" fill="#68a6db"/>
    </clipPath>
    <clipPath id="clip-path-7">
      <circle id="Ellipse_270" data-name="Ellipse 270" cx="41.582" cy="41.582" r="41.582" transform="translate(0 0)" fill="#68a6db"/>
    </clipPath>
    <clipPath id="clip-path-8">
      <circle id="Ellipse_271" data-name="Ellipse 271" cx="40.24" cy="40.24" r="40.24" transform="translate(0 0)" fill="#68a6db"/>
    </clipPath>
  </defs>
  <g id="login-visual-1" transform="translate(21555 -1973)">
    <g id="Mask_Group_29" data-name="Mask Group 29" clip-path="url(#clip-path)">
      <g id="Group_724" data-name="Group 724" transform="translate(-18749.447 2263.984)">
        <circle id="Ellipse_250" data-name="Ellipse 250" cx="171.076" cy="171.076" r="171.076" transform="translate(-2547.521 -225.528)" fill="#fceff2"/>
        <path id="Path_430" data-name="Path 430" d="M171.627,0A171.628,171.628,0,1,1,0,171.627,171.629,171.629,0,0,1,171.627,0Z" transform="translate(-2392.31 -102.918)" fill="#61383f"/>
        <circle id="Ellipse_252" data-name="Ellipse 252" cx="40.24" cy="40.24" r="40.24" transform="translate(-2756.49 -68.605)" fill="#68a6db"/>
        <circle id="Ellipse_253" data-name="Ellipse 253" cx="215.025" cy="215.025" r="215.025" transform="translate(-2800.189 -189.714)" fill="#e2aab4"/>
        <path id="Path_551" data-name="Path 551" d="M56,0A56,56,0,1,1,0,56,56,56,0,0,1,56,0Z" transform="translate(-2194.522 -215.534)" fill="#f5d4da"/>
        <path id="Path_627" data-name="Path 627" d="M34.236,0A34.235,34.235,0,1,1,0,34.235,34.235,34.235,0,0,1,34.236,0Z" transform="translate(-2547.07 171.867)" fill="#f5d4da"/>
        <circle id="Ellipse_255" data-name="Ellipse 255" cx="41.582" cy="41.582" r="41.582" transform="translate(-2254.652 -54.453)" fill="#efefef"/>
        <circle id="Ellipse_256" data-name="Ellipse 256" cx="40.24" cy="40.24" r="40.24" transform="translate(-2416.685 -255.775)" fill="#68bcdb"/>
        <path id="Path_432" data-name="Path 432" d="M93.875,0A93.875,93.875,0,1,1,0,93.875,93.875,93.875,0,0,1,93.875,0Z" transform="translate(-2488.184 -159.04)" fill="#f5d4da"/>
        <circle id="Ellipse_259" data-name="Ellipse 259" cx="67.782" cy="67.782" r="67.782" transform="translate(-2756.489 -12.87)" fill="#fff"/>
        <circle id="Ellipse_260" data-name="Ellipse 260" cx="48.969" cy="48.969" r="48.969" transform="translate(-2601.27 -5.2)" fill="#f5d4da"/>
        <circle id="Ellipse_295" data-name="Ellipse 295" cx="33.651" cy="33.651" r="33.651" transform="translate(-2127.823 154.34)" fill="#f5d4da"/>
        <circle id="Ellipse_296" data-name="Ellipse 296" cx="29.575" cy="29.575" r="29.575" transform="translate(-2435.593 117.34)" fill="#fceff2"/>
        <circle id="Ellipse_272" data-name="Ellipse 272" cx="15.752" cy="15.752" r="15.752" transform="translate(-2425.542 39.595)" fill="#fceff2"/>
        <circle id="Ellipse_273" data-name="Ellipse 273" cx="31.836" cy="31.836" r="31.836" transform="translate(-2287.182 -208.766)" fill="#f5d4da"/>
        <circle id="Ellipse_261" data-name="Ellipse 261" cx="26.571" cy="26.571" r="26.571" transform="translate(-2213.07 77.792)" fill="#ffe4af"/>
        <circle id="Ellipse_262" data-name="Ellipse 262" cx="18.332" cy="18.332" r="18.332" transform="translate(-2337.095 104.363)" fill="#ffe4af"/>
        <g id="Group_300" data-name="Group 300" transform="translate(-2756.489 -12.87)">
          <g id="Group_299" data-name="Group 299" clip-path="url(#clip-path-2)">
            <g id="Group_298" data-name="Group 298" transform="translate(13.603 22.768)">
              <path id="Path_419" data-name="Path 419" d="M-2676.43,276.789c1.2-.8,12.722-7.988,12.832-12.832.208-9.223,9.222-10.827,10.426-11.228s6.416,2.807,6.416,2.807l2.807,5.213s5.079,14.233,13.31,14.837-4.888,16.842-4.888,16.842Z" transform="translate(2703.456 -205.935)" fill="#e7a28d"/>
              <path id="Path_420" data-name="Path 420" d="M-2721.52,316.411s2-20.05,32.481-30.876a34.818,34.818,0,0,0,19.648,7.218c11.629.4,17.244-7.218,17.244-7.218s25.262,8.421,30.476,30.876c0,0-16.781,22.857-49.493,22.456S-2721.52,316.411-2721.52,316.411Z" transform="translate(2721.522 -219.091)" fill="#68a6db"/>
              <ellipse id="Ellipse_265" data-name="Ellipse 265" cx="15.839" cy="20.451" rx="15.839" ry="20.451" transform="translate(34.085 19.126)" fill="#f1b8aa"/>
              <path id="Path_421" data-name="Path 421" d="M-2651.11,197.416s-15.239,11.228-20.852,10.426-9.224-10.025-8.822-14.436,3.856-8.224,6.416-8.421c5.213-.4,6.786-4.411,8.406-8.02s23.273-4.411,25.277,8.822c0,0,2.806,4.573,6.817,5.495s6.015,7.337,1.6,12.149-11.629,5.213-15.238-.4S-2646.3,197.416-2651.11,197.416Z" transform="translate(2705.213 -174.681)" fill="#333d59"/>
            </g>
          </g>
        </g>
        <g id="Group_729" data-name="Group 729" transform="translate(42.379 35.084)">
          <path id="Path_431" data-name="Path 431" d="M55.63,0A55.631,55.631,0,1,1,0,55.631,55.631,55.631,0,0,1,55.63,0Z" transform="translate(-2731.086 -243.851)" fill="#f5d4da"/>
          <g id="Group_303" data-name="Group 303" transform="translate(-2731.084 -243.851)">
            <g id="Group_302" data-name="Group 302" clip-path="url(#clip-path-3)">
              <g id="Group_301" data-name="Group 301" transform="translate(14.764 22.553)">
                <path id="Path_422" data-name="Path 422" d="M-2735.63-88.622s-14.371-.3-13.676-14.208,20.862-22.252,22.948-25.266-.232-7.881-1.159-13.212,4.867-20.166,20.513-19.471,19.354,13.212,19.354,13.212,5.1,1.854,6.722.232-1.391,5.331-2.085,6.258-.464,4.4-.232,9.735-4.173,12.285.232,17.616,13.907,10.431,15.066,14.6-3.477,10.5-3.477,10.5-13.908-5.864-14.834-6.791S-2735.63-88.622-2735.63-88.622Z" transform="translate(2749.332 160.802)" fill="#333d59"/>
                <path id="Path_423" data-name="Path 423" d="M-2744.58-22.918s8.435-18.2,27.745-23.7l12.471,14.893,7.764,2.318,7.186-13.212s16.92,7.186,22.021,21.557c0,0-9.01,14.507-35,15.53C-2731.83-4.375-2744.58-22.918-2744.58-22.918Z" transform="translate(2746.691 97.348)" fill="#f17e7c"/>
                <path id="Path_424" data-name="Path 424" d="M-2677.98-72.575a9.755,9.755,0,0,1-2.318,7.417,19.33,19.33,0,0,1-7.417,5.331s8.809,15.762,18.312,19.7,11.59-15.3,11.59-15.3a57.021,57.021,0,0,1-4.4-5.331,45.235,45.235,0,0,1-2.55-6.722Z" transform="translate(2715.087 111.772)" fill="#ffe4b4"/>
                <path id="Path_425" data-name="Path 425" d="M-2647.25-109.691s-7.649,1.159-11.59,0-15.3-7.315-19.238.515,3.708,19.68,12.98,23.389,12.345-3.373,14.139-6.288C-2647.25-98.1-2647.25-109.691-2647.25-109.691Z" transform="translate(2710.324 134.284)" fill="#ffe4b4"/>
              </g>
            </g>
          </g>
        </g>
        <g id="Group_306" data-name="Group 306" transform="translate(-2488.182 -159.04)">
          <g id="Group_305" data-name="Group 305" transform="translate(0 0)" clip-path="url(#clip-path-4)">
            <g id="Group_304" data-name="Group 304" transform="translate(33.629 34.436)">
              <path id="Path_426" data-name="Path 426" d="M-2184.08,71.38s24.966-.522,23.759-24.682-12.483-26.073-16.107-31.307.4-13.691,2.014-22.952-8.455-35.033-35.636-33.824-33.624,22.952-33.624,22.952-8.858,3.222-11.677.4,2.416,9.261,3.625,10.874.806,7.651.4,16.913,7.249,21.342-.4,30.6c-3.249,3.932-13.5,14.8-11.872,23.229,2.212,11.422,27.576,4.027,27.576,4.027s-11.677,6.166-10.067,4.552S-2184.08,71.38-2184.08,71.38Z" transform="translate(2274.268 41.427)" fill="#333d59"/>
              <path id="Path_427" data-name="Path 427" d="M-2147.5,149.257s-14.655-31.61-48.2-41.175l-21.663,25.873-13.487,4.027-12.483-22.952s-29.4,12.483-38.255,37.449c0,0,15.652,25.2,60.8,26.98C-2169.648,181.47-2147.5,149.257-2147.5,149.257Z" transform="translate(2281.583 -19.955)" fill="#132369"/>
              <path id="Path_428" data-name="Path 428" d="M-2181.658,74.1s-1.208,6.443,4.028,12.886a33.582,33.582,0,0,0,12.885,9.261s-15.3,27.382-31.811,34.227S-2216.69,103.9-2216.69,103.9s5.879-6.388,7.65-9.262,4.429-11.677,4.429-11.677Z" transform="translate(2254.939 -6.002)" fill="#ffe4b4"/>
              <path id="Path_429" data-name="Path 429" d="M-2233.77,26.952s13.288,2.014,20.133,0,26.577-12.706,33.422.9-6.443,34.189-22.549,40.629-21.448-5.86-24.563-10.924C-2233.77,47.086-2233.77,26.952-2233.77,26.952Z" transform="translate(2261.951 15.775)" fill="#ffe4b4"/>
            </g>
          </g>
        </g>
        <g id="Mask_Group_5" data-name="Mask Group 5" transform="translate(-2194.522 -215.534)" clip-path="url(#clip-path-5)">
          <g id="Group_296" data-name="Group 296" transform="translate(20.963 27.98)">
            <path id="Path_413" data-name="Path 413" d="M-1914.72-90.217c.894-.6,9.457-5.938,9.538-9.539.156-6.856,6.856-8.048,7.75-8.346s4.769,2.086,4.769,2.086l2.086,3.875s3.775,10.58,9.894,11.029-3.634,12.519-3.634,12.519Z" transform="translate(1934.808 142.886)" fill="#f1c883"/>
            <path id="Path_414" data-name="Path 414" d="M-1949.88-59.565s1.491-14.9,24.144-22.952a25.887,25.887,0,0,0,14.606,5.365,15.566,15.566,0,0,0,12.817-5.365s18.779,6.259,22.654,22.952a46.589,46.589,0,0,1-36.79,16.692,50.928,50.928,0,0,1-37.431-16.692Z" transform="translate(1949.884 131.908)" fill="#333d59"/>
            <ellipse id="Ellipse_263" data-name="Ellipse 263" cx="11.774" cy="15.202" rx="11.774" ry="15.202" transform="translate(25.337 14.217)" fill="#f1c883"/>
            <path id="Path_415" data-name="Path 415" d="M-1896.06-152.068s-11.327,8.346-15.5,7.75-6.856-7.452-6.557-10.73,2.866-6.114,4.769-6.26c3.875-.3,5.045-3.279,6.248-5.962s17.3-3.279,18.79,6.558c0,0,2.086,3.4,5.067,4.084s4.472,5.454,1.193,9.031-8.644,3.875-11.327-.3S-1892.48-152.068-1896.06-152.068Z" transform="translate(1936.274 168.968)" fill="#333d59"/>
          </g>
        </g>
        <g id="Mask_Group_28" data-name="Mask Group 28" transform="translate(-2547.07 171.867)" clip-path="url(#clip-path-6)">
          <g id="Group_725" data-name="Group 725" transform="translate(12.815 17.105)">
            <path id="Path_624" data-name="Path 624" d="M-1914.72-97.178c.547-.365,5.781-3.63,5.831-5.831.095-4.191,4.191-4.92,4.738-5.1s2.916,1.275,2.916,1.275l1.275,2.369s2.308,6.468,6.049,6.742-2.222,7.653-2.222,7.653Z" transform="translate(1926.999 129.376)" fill="#f1c883"/>
            <path id="Path_625" data-name="Path 625" d="M-1949.88-68.486s.911-9.111,14.76-14.031a15.825,15.825,0,0,0,8.929,3.28,9.517,9.517,0,0,0,7.836-3.28s11.48,3.826,13.849,14.031A28.481,28.481,0,0,1-1927-58.281a31.134,31.134,0,0,1-22.88-10.2Z" transform="translate(1949.884 112.711)" fill="#333d59"/>
            <ellipse id="Ellipse_293" data-name="Ellipse 293" cx="7.198" cy="9.293" rx="7.198" ry="9.293" transform="translate(15.489 8.692)" fill="#f1c883"/>
            <path id="Path_626" data-name="Path 626" d="M-1904.64-158.636s-6.925,5.1-9.476,4.738-4.191-4.555-4.009-6.56,1.752-3.737,2.915-3.827c2.369-.182,3.084-2,3.82-3.644s10.576-2,11.487,4.009a5.992,5.992,0,0,0,3.1,2.5c1.823.419,2.733,3.334.729,5.521s-5.285,2.369-6.925-.182S-1902.45-158.636-1904.64-158.636Z" transform="translate(1929.224 168.968)" fill="#333d59"/>
          </g>
        </g>
        <g id="Mask_Group_6" data-name="Mask Group 6" transform="translate(-2254.653 -54.453)" clip-path="url(#clip-path-7)">
          <g id="Group_308" data-name="Group 308" transform="translate(12.893 15.547)">
            <path id="Path_409" data-name="Path 409" d="M-1879.53,131.651s-3.82,11.321-.858,16.39,18.821,2.289,18.821,2.289l4.9-17.332L-1874,129.074Z" transform="translate(1894.928 -117.264)" fill="#ffe4b4"/>
            <path id="Path_410" data-name="Path 410" d="M-1849.76,170.815s-5.88-2.266-6.868-5.069a34.641,34.641,0,0,1-1.308-7.194s-13.572,1.472-14.061,1.308a39.471,39.471,0,0,0-4.415,0v8.012l-5.249,2.943s-6.519,8.176-1.125,12.59,20.764-1.472,21.908-2.126S-1849.76,170.815-1849.76,170.815Z" transform="translate(1896.199 -128.265)" fill="#ffe4b4"/>
            <path id="Path_411" data-name="Path 411" d="M-1866.63,142.589s5.233-5.233,5.886-8.5-1.635-8.176-1.635-8.176-17.986,1.308-17.333-2.616,1.543-15.043,19.086-12.754,15.706,22.64,13.944,26.163c-2.289,4.578-8.175,11.445-18.64,8.175C-1871.18,143.045-1866.63,142.589-1866.63,142.589Z" transform="translate(1894.258 -110.233)" fill="#313e59"/>
            <path id="Path_412" data-name="Path 412" d="M-1888.38,176.189s-5.215,8.83,3.614,10.464,26.172-11.989,26.172-11.989,17,7.738,18.63,15.1c0,0-11.274,14.541-25.835,14.552-25.508.022-32.7-7.522-37.118-10.628C-1902.91,193.685-1898.37,178.968-1888.38,176.189Z" transform="translate(1902.913 -133.531)" fill="#f1807b"/>
          </g>
        </g>
        <g id="Mask_Group_8" data-name="Mask Group 8" transform="translate(-2416.685 -255.775)" clip-path="url(#clip-path-8)">
          <g id="Group_309" data-name="Group 309" transform="translate(5.294 14.045)">
            <path id="Path_416" data-name="Path 416" d="M-2303.67-222.618s5.185-8.148,5.185-16.666,15.925-2.963,15.925-2.963-.371,16.666,6.666,22.591-15.555,5-16.667,4.539S-2303.67-222.618-2303.67-222.618Z" transform="translate(2325.891 269.397)" fill="#e8a38e"/>
            <path id="Path_417" data-name="Path 417" d="M-2309.46-221.09s1.108,9.011,11.664,7.067,9.108-8.055,9.108-8.055,18.944,1.058,24.5,8.306c0,0-8.611,17.526-33.609,17.248s-36.111-12.775-36.111-12.775S-2321.68-219.7-2309.46-221.09Z" transform="translate(2333.906 263.58)" fill="#fffffd"/>
            <ellipse id="Ellipse_264" data-name="Ellipse 264" cx="13.888" cy="15.277" rx="13.888" ry="15.277" transform="translate(22.221 7.337)" fill="#e8a38e"/>
            <path id="Path_418" data-name="Path 418" d="M-2308.38-258.988c2.619,2.966,13.054,0,15.415-3.611s3.165-4.155,8.165-.822,5.348,4.558,9.473,2.211c3.473-1.976,1.455-9.586-4.443-14.443-6.111-5.031-23.056-3.226-26.666,3.3C-2311.14-263.849-2312.83-264.02-2308.38-258.988Z" transform="translate(2327.827 278.547)" fill="#1d2442"/>
          </g>
        </g>
      </g>
    </g>
  </g>
</svg>
