<svg xmlns="http://www.w3.org/2000/svg" width="93" height="93" viewBox="0 0 93 93">
  <g id="Annual" transform="translate(-0.102 0.257)">
    <circle id="Ellipse_292" data-name="Ellipse 292" cx="46.5" cy="46.5" r="46.5" transform="translate(0.102 -0.257)" fill="#fff"/>
    <path id="Path_547" data-name="Path 547" d="M-1918.88,96.3l-5.719-3.007-13.9,7.307,2.654-15.476-11.244-10.96,15.539-2.258,6.949-14.081,6.949,14.081,6.918,1" transform="translate(1954.08 -36.027)" fill="none" stroke="#61383f" stroke-linecap="round" stroke-linejoin="round" stroke-width="3"/>
    <path id="Path_548" data-name="Path 548" d="M-1890.6,72.608l4.836-.7,6.949-14.081,6.949,14.081,15.539,2.258-11.244,10.96,2.654,15.476-13.9-7.307-6.012,3.161" transform="translate(1942.577 -36.027)" fill="none" stroke="#61383f" stroke-linecap="round" stroke-linejoin="round" stroke-width="3"/>
    <path id="Path_549" data-name="Path 549" d="M-1903.21,66.461l6.949,14.081,15.539,2.258-11.244,10.96,2.654,15.476-13.9-7.307-13.9,7.307,2.654-15.476L-1925.7,82.8l15.539-2.258Z" transform="translate(1949.725 -37.786)" fill="#fff" stroke="#61383f" stroke-linecap="round" stroke-linejoin="round" stroke-width="3"/>
  </g>
</svg>
