<svg xmlns="http://www.w3.org/2000/svg" width="93" height="92" viewBox="0 0 93 92">
  <g id="Bookmark" transform="translate(0.207 -0.035)">
    <ellipse id="Ellipse_285" data-name="Ellipse 285" cx="46.5" cy="46" rx="46.5" ry="46" transform="translate(-0.207 0.035)" fill="#fff"/>
    <path id="Path_537" data-name="Path 537" d="M-2605.03,64.423h-31.87a4.867,4.867,0,0,0-4.875,4.663v47.142a3.611,3.611,0,0,0,.615,2.1,2.384,2.384,0,0,0,1.968,1.024,3.557,3.557,0,0,0,2.259-.952l14.257-12.106a2.694,2.694,0,0,1,1.73-.592,2.692,2.692,0,0,1,1.731.592l14.21,12.1a3.431,3.431,0,0,0,2.205.954c1.25,0,2.469-.964,2.469-3.119V69.086a4.714,4.714,0,0,0-4.7-4.663Z" transform="translate(2667.4 -46.109)" fill="none" stroke="#61383f" stroke-linecap="round" stroke-linejoin="round" stroke-width="3"/>
  </g>
</svg>
