<svg xmlns="http://www.w3.org/2000/svg" xmlns:xlink="http://www.w3.org/1999/xlink" width="121" height="136" viewBox="0 0 121 136">
  <defs>
    <filter id="Rectangle_1305" x="0" y="0" width="100" height="115" filterUnits="userSpaceOnUse">
      <feOffset dy="63" input="SourceAlpha"/>
      <feGaussianBlur stdDeviation="16" result="blur"/>
      <feFlood flood-opacity="0.059"/>
      <feComposite operator="in" in2="blur"/>
      <feComposite in="SourceGraphic"/>
    </filter>
    <filter id="Rectangle_1306" x="0" y="6" width="100" height="115" filterUnits="userSpaceOnUse">
      <feOffset dy="63" input="SourceAlpha"/>
      <feGaussianBlur stdDeviation="16" result="blur-2"/>
      <feFlood flood-opacity="0.059"/>
      <feComposite operator="in" in2="blur-2"/>
      <feComposite in="SourceGraphic"/>
    </filter>
    <filter id="Rectangle_1308" x="0" y="10" width="100" height="116" filterUnits="userSpaceOnUse">
      <feOffset dy="63" input="SourceAlpha"/>
      <feGaussianBlur stdDeviation="16" result="blur-3"/>
      <feFlood flood-opacity="0.059"/>
      <feComposite operator="in" in2="blur-3"/>
      <feComposite in="SourceGraphic"/>
    </filter>
    <filter id="Rectangle_1307" x="0" y="15" width="100" height="115" filterUnits="userSpaceOnUse">
      <feOffset dy="63" input="SourceAlpha"/>
      <feGaussianBlur stdDeviation="16" result="blur-4"/>
      <feFlood flood-opacity="0.059"/>
      <feComposite operator="in" in2="blur-4"/>
      <feComposite in="SourceGraphic"/>
    </filter>
    <filter id="Rectangle_1317" x="21" y="0" width="100" height="115" filterUnits="userSpaceOnUse">
      <feOffset dy="63" input="SourceAlpha"/>
      <feGaussianBlur stdDeviation="16" result="blur-5"/>
      <feFlood flood-opacity="0.059"/>
      <feComposite operator="in" in2="blur-5"/>
      <feComposite in="SourceGraphic"/>
    </filter>
    <filter id="Rectangle_1316" x="15" y="0" width="100" height="115" filterUnits="userSpaceOnUse">
      <feOffset dy="63" input="SourceAlpha"/>
      <feGaussianBlur stdDeviation="16" result="blur-6"/>
      <feFlood flood-opacity="0.059"/>
      <feComposite operator="in" in2="blur-6"/>
      <feComposite in="SourceGraphic"/>
    </filter>
    <filter id="Rectangle_1318" x="10" y="0" width="101" height="115" filterUnits="userSpaceOnUse">
      <feOffset dy="63" input="SourceAlpha"/>
      <feGaussianBlur stdDeviation="16" result="blur-7"/>
      <feFlood flood-opacity="0.059"/>
      <feComposite operator="in" in2="blur-7"/>
      <feComposite in="SourceGraphic"/>
    </filter>
    <filter id="Rectangle_1319" x="6" y="0" width="100" height="115" filterUnits="userSpaceOnUse">
      <feOffset dy="63" input="SourceAlpha"/>
      <feGaussianBlur stdDeviation="16" result="blur-8"/>
      <feFlood flood-opacity="0.059"/>
      <feComposite operator="in" in2="blur-8"/>
      <feComposite in="SourceGraphic"/>
    </filter>
    <filter id="Rectangle_1315" x="21" y="5" width="100" height="115" filterUnits="userSpaceOnUse">
      <feOffset dy="63" input="SourceAlpha"/>
      <feGaussianBlur stdDeviation="16" result="blur-9"/>
      <feFlood flood-opacity="0.059"/>
      <feComposite operator="in" in2="blur-9"/>
      <feComposite in="SourceGraphic"/>
    </filter>
    <filter id="Rectangle_1306-2" x="21" y="10" width="100" height="115" filterUnits="userSpaceOnUse">
      <feOffset dy="63" input="SourceAlpha"/>
      <feGaussianBlur stdDeviation="16" result="blur-10"/>
      <feFlood flood-opacity="0.059"/>
      <feComposite operator="in" in2="blur-10"/>
      <feComposite in="SourceGraphic"/>
    </filter>
    <filter id="Rectangle_1311" x="21" y="15" width="100" height="115" filterUnits="userSpaceOnUse">
      <feOffset dy="63" input="SourceAlpha"/>
      <feGaussianBlur stdDeviation="16" result="blur-11"/>
      <feFlood flood-opacity="0.059"/>
      <feComposite operator="in" in2="blur-11"/>
      <feComposite in="SourceGraphic"/>
    </filter>
    <filter id="Rectangle_1309" x="0" y="21" width="100" height="115" filterUnits="userSpaceOnUse">
      <feOffset dy="63" input="SourceAlpha"/>
      <feGaussianBlur stdDeviation="16" result="blur-12"/>
      <feFlood flood-opacity="0.059"/>
      <feComposite operator="in" in2="blur-12"/>
      <feComposite in="SourceGraphic"/>
    </filter>
    <filter id="Rectangle_1306-3" x="21" y="21" width="100" height="115" filterUnits="userSpaceOnUse">
      <feOffset dy="63" input="SourceAlpha"/>
      <feGaussianBlur stdDeviation="16" result="blur-13"/>
      <feFlood flood-opacity="0.059"/>
      <feComposite operator="in" in2="blur-13"/>
      <feComposite in="SourceGraphic"/>
    </filter>
    <filter id="Rectangle_1308-2" x="15" y="21" width="100" height="115" filterUnits="userSpaceOnUse">
      <feOffset dy="63" input="SourceAlpha"/>
      <feGaussianBlur stdDeviation="16" result="blur-14"/>
      <feFlood flood-opacity="0.059"/>
      <feComposite operator="in" in2="blur-14"/>
      <feComposite in="SourceGraphic"/>
    </filter>
    <filter id="Rectangle_1307-2" x="10" y="21" width="101" height="115" filterUnits="userSpaceOnUse">
      <feOffset dy="63" input="SourceAlpha"/>
      <feGaussianBlur stdDeviation="16" result="blur-15"/>
      <feFlood flood-opacity="0.059"/>
      <feComposite operator="in" in2="blur-15"/>
      <feComposite in="SourceGraphic"/>
    </filter>
    <filter id="Rectangle_1309-2" x="6" y="21" width="100" height="115" filterUnits="userSpaceOnUse">
      <feOffset dy="63" input="SourceAlpha"/>
      <feGaussianBlur stdDeviation="16" result="blur-16"/>
      <feFlood flood-opacity="0.059"/>
      <feComposite operator="in" in2="blur-16"/>
      <feComposite in="SourceGraphic"/>
    </filter>
  </defs>
  <g id="Group_602" data-name="Group 602" transform="translate(21163 -9561)">
    <g transform="matrix(1, 0, 0, 1, -21163, 9561)" filter="url(#Rectangle_1305)">
      <rect id="Rectangle_1305-2" data-name="Rectangle 1305" width="4" height="4" rx="2" transform="translate(48)" fill="#fff"/>
    </g>
    <g transform="matrix(1, 0, 0, 1, -21163, 9561)" filter="url(#Rectangle_1306)">
      <rect id="Rectangle_1306-4" data-name="Rectangle 1306" width="4" height="4" rx="2" transform="translate(48 6)" fill="#fff"/>
    </g>
    <g transform="matrix(1, 0, 0, 1, -21163, 9561)" filter="url(#Rectangle_1308)">
      <rect id="Rectangle_1308-3" data-name="Rectangle 1308" width="4" height="5" rx="2" transform="translate(48 10)" fill="#fff"/>
    </g>
    <g transform="matrix(1, 0, 0, 1, -21163, 9561)" filter="url(#Rectangle_1307)">
      <rect id="Rectangle_1307-3" data-name="Rectangle 1307" width="4" height="4" rx="2" transform="translate(48 15)" fill="#fff"/>
    </g>
    <g transform="matrix(1, 0, 0, 1, -21163, 9561)" filter="url(#Rectangle_1317)">
      <rect id="Rectangle_1317-2" data-name="Rectangle 1317" width="4" height="4" rx="2" transform="translate(73) rotate(90)" fill="#fff"/>
    </g>
    <g transform="matrix(1, 0, 0, 1, -21163, 9561)" filter="url(#Rectangle_1316)">
      <rect id="Rectangle_1316-2" data-name="Rectangle 1316" width="4" height="4" rx="2" transform="translate(67) rotate(90)" fill="#fff"/>
    </g>
    <g transform="matrix(1, 0, 0, 1, -21163, 9561)" filter="url(#Rectangle_1318)">
      <rect id="Rectangle_1318-2" data-name="Rectangle 1318" width="4" height="5" rx="2" transform="translate(63) rotate(90)" fill="#fff"/>
    </g>
    <g transform="matrix(1, 0, 0, 1, -21163, 9561)" filter="url(#Rectangle_1319)">
      <rect id="Rectangle_1319-2" data-name="Rectangle 1319" width="4" height="4" rx="2" transform="translate(58) rotate(90)" fill="#fff"/>
    </g>
    <g transform="matrix(1, 0, 0, 1, -21163, 9561)" filter="url(#Rectangle_1315)">
      <rect id="Rectangle_1315-2" data-name="Rectangle 1315" width="4" height="4" rx="2" transform="translate(73 5) rotate(90)" fill="#fff"/>
    </g>
    <g transform="matrix(1, 0, 0, 1, -21163, 9561)" filter="url(#Rectangle_1306-2)">
      <rect id="Rectangle_1306-5" data-name="Rectangle 1306" width="4" height="4" rx="2" transform="translate(73 10) rotate(90)" fill="#fff"/>
    </g>
    <g transform="matrix(1, 0, 0, 1, -21163, 9561)" filter="url(#Rectangle_1311)">
      <rect id="Rectangle_1311-2" data-name="Rectangle 1311" width="4" height="4" rx="2" transform="translate(73 15) rotate(90)" fill="#fff"/>
    </g>
    <g id="Group_601" data-name="Group 601" transform="translate(-21115.391 9581.842)">
      <g transform="matrix(1, 0, 0, 1, -47.61, -20.84)" filter="url(#Rectangle_1309)">
        <rect id="Rectangle_1309-3" data-name="Rectangle 1309" width="4" height="4" rx="2" transform="translate(48 21)" fill="#fff"/>
      </g>
      <g transform="matrix(1, 0, 0, 1, -47.61, -20.84)" filter="url(#Rectangle_1306-3)">
        <rect id="Rectangle_1306-6" data-name="Rectangle 1306" width="4" height="4" rx="2" transform="translate(73 21) rotate(90)" fill="#fff"/>
      </g>
      <g transform="matrix(1, 0, 0, 1, -47.61, -20.84)" filter="url(#Rectangle_1308-2)">
        <rect id="Rectangle_1308-4" data-name="Rectangle 1308" width="4" height="4" rx="2" transform="translate(67 21) rotate(90)" fill="#fff"/>
      </g>
      <g transform="matrix(1, 0, 0, 1, -47.61, -20.84)" filter="url(#Rectangle_1307-2)">
        <rect id="Rectangle_1307-4" data-name="Rectangle 1307" width="4" height="5" rx="2" transform="translate(63 21) rotate(90)" fill="#fff"/>
      </g>
      <g transform="matrix(1, 0, 0, 1, -47.61, -20.84)" filter="url(#Rectangle_1309-2)">
        <rect id="Rectangle_1309-4" data-name="Rectangle 1309" width="4" height="4" rx="2" transform="translate(58 21) rotate(90)" fill="#fff"/>
      </g>
    </g>
  </g>
</svg>
