<svg xmlns="http://www.w3.org/2000/svg" width="93" height="92" viewBox="0 0 93 92">
  <g id="PassiveLeads" transform="translate(-0.072 -0.035)">
    <ellipse id="Ellipse_277" data-name="Ellipse 277" cx="46.5" cy="46" rx="46.5" ry="46" transform="translate(0.072 0.035)" fill="#fff"/>
    <g id="Group_700" data-name="Group 700" transform="translate(21.879 10.845)">
      <path id="Path_534" data-name="Path 534" d="M-2892.45,96.361l-2.2-1.729a2,2,0,0,1-.713-1.528V89.011a1.37,1.37,0,0,1,1.37-1.37h43.243a1.142,1.142,0,0,1,1.142,1.142v3.945a2.04,2.04,0,0,1-.716,1.551l-17.276,14.732v17.06a1.85,1.85,0,0,1-.944,1.613l-6.548,3.679a1.408,1.408,0,0,1-1.4-.01,1.408,1.408,0,0,1-.7-1.217v-3.361" transform="translate(2899.473 -61.683)" fill="none" stroke="#61383f" stroke-linecap="round" stroke-linejoin="round" stroke-width="3"/>
      <g id="Group_699" data-name="Group 699" transform="translate(8.255)">
        <circle id="Ellipse_278" data-name="Ellipse 278" cx="4.66" cy="4.66" r="4.66" transform="translate(0 12.066)" fill="none" stroke="#61383f" stroke-linecap="round" stroke-linejoin="round" stroke-width="3"/>
        <circle id="Ellipse_279" data-name="Ellipse 279" cx="3.027" cy="3.027" r="3.027" transform="translate(14.207 9.646)" fill="none" stroke="#61383f" stroke-linecap="round" stroke-linejoin="round" stroke-width="3"/>
        <circle id="Ellipse_280" data-name="Ellipse 280" cx="3.333" cy="3.333" r="3.333" transform="translate(22.002 0)" fill="none" stroke="#61383f" stroke-linecap="round" stroke-linejoin="round" stroke-width="3"/>
        <circle id="Ellipse_281" data-name="Ellipse 281" cx="5.549" cy="5.549" r="5.549" transform="translate(26.376 10.151)" fill="none" stroke="#61383f" stroke-linecap="round" stroke-linejoin="round" stroke-width="3"/>
      </g>
      <path id="Path_535" data-name="Path 535" d="M-2875.4,111.915l-2.083-.265a10.455,10.455,0,0,0-.63-1.522l1.286-1.656a1.646,1.646,0,0,0-.135-2.192l-1.744-1.745a1.652,1.652,0,0,0-2.2-.141l-1.653,1.286a10.417,10.417,0,0,0-1.523-.63l-.264-2.079a1.658,1.658,0,0,0-1.646-1.462h-2.48a1.659,1.659,0,0,0-1.646,1.459l-.265,2.082a10.338,10.338,0,0,0-1.523.63l-1.655-1.286a1.647,1.647,0,0,0-2.191.135l-1.745,1.743a1.653,1.653,0,0,0-.141,2.2l1.286,1.654a10.359,10.359,0,0,0-.63,1.522l-2.079.265a1.659,1.659,0,0,0-1.462,1.646v2.481a1.659,1.659,0,0,0,1.459,1.646l2.083.264a10.421,10.421,0,0,0,.63,1.522l-1.286,1.656a1.646,1.646,0,0,0,.135,2.192l1.745,1.745a1.653,1.653,0,0,0,2.2.139l1.654-1.286a10.187,10.187,0,0,0,1.522.63l.265,2.078a1.658,1.658,0,0,0,1.646,1.464h2.48a1.659,1.659,0,0,0,1.646-1.458l.264-2.082a10.406,10.406,0,0,0,1.522-.631l1.656,1.286a1.645,1.645,0,0,0,2.191-.135l1.745-1.744a1.65,1.65,0,0,0,.14-2.2l-1.286-1.655a10.172,10.172,0,0,0,.63-1.522l2.078-.264a1.659,1.659,0,0,0,1.462-1.646v-2.481a1.657,1.657,0,0,0-1.458-1.643Zm-11.833,7.842h0a4.962,4.962,0,0,1-4.957-4.956,4.962,4.962,0,0,1,4.957-4.956,4.962,4.962,0,0,1,4.957,4.956,4.962,4.962,0,0,1-4.953,4.956Z" transform="translate(2900.525 -64.507)" fill="none" stroke="#61383f" stroke-linecap="round" stroke-linejoin="round" stroke-width="3"/>
    </g>
  </g>
</svg>
